# xmcd
#
# Track frame offsets: 
#        150
#        4980
#        20168
#        33743
#        48249
#        60441
#        79191
#        94491
#        107504
#        119985
#        136598
#
# Disc length: 1906 seconds
#
# Revision: 0
# Processed by: cddbd v1.5.2PL0 Copyright (c) Steve Scherf et al.
# Submitted via: ExactAudioCopy v0.99pb5
#
DISCID=9407700b
DTITLE=Bars Up and M.I.C. - The CHILLtape
DYEAR=2011
DGENRE=Rap
TTITLE0=Intro
TTITLE1=What We Doin
TTITLE2=Kickin
TTITLE3=I See
TTITLE4=Dulce
TTITLE5=Ode To The Tunes
TTITLE6=Never Know
TTITLE7=Almost Famous
TTITLE8=Sunshine
TTITLE9=2 The Homies
TTITLE10=M.I.C. - Bonus Track
EXTD=
EXTT0=
EXTT1=
EXTT2=
EXTT3=
EXTT4=
EXTT5=
EXTT6=
EXTT7=
EXTT8=
EXTT9=
EXTT10=
PLAYORDER=
